<svg width="17" height="17" viewBox="0 0 17 17" fill="none" xmlns="http://www.w3.org/2000/svg">
<g id="iconamoon:search">
<path id="Vector" d="M14.7052 14.5L11.8099 11.6047M11.8099 11.6047C12.3051 11.1094 12.698 10.5215 12.966 9.87438C13.2341 9.22729 13.372 8.53375 13.372 7.83335C13.372 7.13295 13.2341 6.4394 12.966 5.79232C12.698 5.14523 12.3051 4.55727 11.8099 4.06202C11.3146 3.56676 10.7267 3.1739 10.0796 2.90586C9.43249 2.63783 8.73895 2.49988 8.03855 2.49988C7.33815 2.49988 6.6446 2.63783 5.99752 2.90586C5.35043 3.1739 4.76247 3.56676 4.26722 4.06202C3.267 5.06224 2.70508 6.41882 2.70508 7.83335C2.70508 9.24787 3.267 10.6045 4.26722 11.6047C5.26744 12.6049 6.62402 13.1668 8.03855 13.1668C9.45307 13.1668 10.8097 12.6049 11.8099 11.6047Z" stroke="white" stroke-width="2" stroke-linecap="round" stroke-linejoin="round"/>
</g>
</svg>
