<svg width="14" height="13" viewBox="0 0 14 13" fill="none" xmlns="http://www.w3.org/2000/svg">
<g id="simple-icons:binance" clip-path="url(#clip0_35_1629)">
<path id="Vector" d="M9.19412 7.53995L10.6658 9.01112L6.68295 12.994L2.70062 9.01166L4.17233 7.53995L6.6835 10.0641L9.19412 7.53995ZM11.7058 5.02879L13.1895 6.49995L11.7188 7.97112L10.2471 6.49995L11.7058 5.02879ZM6.6835 5.02879L8.15466 6.48695L6.68295 7.95866L5.21179 6.49995L6.68295 5.02933L6.6835 5.02879ZM1.66062 5.02879L3.11987 6.49995L1.6617 7.95812L0.189453 6.49995L1.66062 5.02879ZM6.68404 0.00537109L10.6664 3.97579L9.19466 5.44641L6.6835 2.93525L4.17287 5.45941L2.70116 3.98825L6.6835 0.00591276L6.68404 0.00537109Z" fill="#A9B144"/>
</g>
<defs>
<clipPath id="clip0_35_1629">
<rect width="13" height="13" fill="white" transform="translate(0.189453)"/>
</clipPath>
</defs>
</svg>
