<svg width="20" height="20" viewBox="0 0 20 20" fill="none" xmlns="http://www.w3.org/2000/svg">
<g id="mdi:question-mark-circle-outline">
<path id="Vector" d="M9.20825 14.75H10.7916V13.1667H9.20825V14.75ZM9.99992 2.08337C8.96029 2.08337 7.93084 2.28814 6.97034 2.68599C6.00985 3.08384 5.13712 3.66698 4.40199 4.40211C2.91733 5.88677 2.08325 7.90041 2.08325 10C2.08325 12.0997 2.91733 14.1133 4.40199 15.598C5.13712 16.3331 6.00985 16.9162 6.97034 17.3141C7.93084 17.7119 8.96029 17.9167 9.99992 17.9167C12.0995 17.9167 14.1132 17.0826 15.5978 15.598C17.0825 14.1133 17.9166 12.0997 17.9166 10C17.9166 8.96041 17.7118 7.93096 17.314 6.97046C16.9161 6.00997 16.333 5.13724 15.5978 4.40211C14.8627 3.66698 13.99 3.08384 13.0295 2.68599C12.069 2.28814 11.0395 2.08337 9.99992 2.08337ZM9.99992 16.3334C6.50867 16.3334 3.66659 13.4913 3.66659 10C3.66659 6.50879 6.50867 3.66671 9.99992 3.66671C13.4912 3.66671 16.3333 6.50879 16.3333 10C16.3333 13.4913 13.4912 16.3334 9.99992 16.3334ZM9.99992 5.25004C9.16007 5.25004 8.35461 5.58367 7.76075 6.17754C7.16688 6.7714 6.83325 7.57685 6.83325 8.41671H8.41658C8.41658 7.99678 8.5834 7.59405 8.88033 7.29712C9.17727 7.00019 9.57999 6.83337 9.99992 6.83337C10.4198 6.83337 10.8226 7.00019 11.1195 7.29712C11.4164 7.59405 11.5833 7.99678 11.5833 8.41671C11.5833 10 9.20825 9.80212 9.20825 12.375H10.7916C10.7916 10.5938 13.1666 10.3959 13.1666 8.41671C13.1666 7.57685 12.833 6.7714 12.2391 6.17754C11.6452 5.58367 10.8398 5.25004 9.99992 5.25004Z" fill="#4B4962"/>
</g>
</svg>
