<svg width="16" height="17" viewBox="0 0 16 17" fill="none" xmlns="http://www.w3.org/2000/svg">
<g id="ri:twitter-fill">
<path id="Vector" d="M14.7747 4.27062C14.2657 4.49575 13.726 4.6436 13.1734 4.70928C13.7559 4.36091 14.1918 3.81263 14.4 3.16662C13.8534 3.49195 13.254 3.71995 12.6294 3.84328C12.2098 3.39434 11.6536 3.09659 11.0473 2.99634C10.4411 2.89609 9.81866 2.99895 9.27688 3.28892C8.7351 3.57889 8.30429 4.03974 8.05144 4.59981C7.7986 5.15989 7.73787 5.7878 7.8787 6.38595C6.77011 6.33039 5.68559 6.0423 4.69556 5.54039C3.70553 5.03849 2.83212 4.33398 2.13204 3.47262C1.88423 3.89825 1.75401 4.3821 1.7547 4.87462C1.7547 5.84128 2.2467 6.69528 2.9947 7.19528C2.55204 7.18135 2.11912 7.06181 1.73204 6.84662V6.88128C1.73217 7.52508 1.95495 8.14903 2.3626 8.64732C2.77025 9.14562 3.33769 9.4876 3.9687 9.61528C3.55778 9.72664 3.12691 9.74306 2.7087 9.66328C2.88661 10.2174 3.23337 10.7021 3.70043 11.0494C4.16749 11.3966 4.73145 11.5891 5.31337 11.6C4.73502 12.0542 4.07282 12.3899 3.36462 12.5881C2.65642 12.7862 1.91612 12.8428 1.18604 12.7546C2.4605 13.5742 3.9441 14.0094 5.45937 14.0079C10.588 14.0079 13.3927 9.75928 13.3927 6.07462C13.3927 5.95462 13.3894 5.83328 13.384 5.71462C13.9299 5.32006 14.4011 4.8313 14.7754 4.27128L14.7747 4.27062Z" fill="#5548EC"/>
</g>
</svg>
