<svg width="10" height="7" viewBox="0 0 10 7" fill="none" xmlns="http://www.w3.org/2000/svg">
<path id="Vector" d="M8.17901 0.581743C7.59728 0.310564 6.96745 0.11374 6.31137 2.01189e-05C6.30562 -0.000163847 6.2999 0.000915657 6.29461 0.00318275C6.28932 0.00544984 6.28459 0.00884946 6.28075 0.0131418C6.20203 0.157479 6.11017 0.345555 6.04894 0.489892C5.35306 0.384919 4.64537 0.384919 3.94949 0.489892C3.88826 0.341181 3.79641 0.157479 3.7133 0.0131418C3.70893 0.00439407 3.69581 2.01189e-05 3.68268 2.01189e-05C3.02661 0.11374 2.40115 0.310564 1.81505 0.581743C1.81068 0.581743 1.8063 0.586117 1.80193 0.590491C0.612239 2.37065 0.2842 4.1027 0.446032 5.81725C0.446032 5.82599 0.450406 5.83474 0.459154 5.83912C1.24645 6.41647 2.00312 6.76637 2.75105 6.99819C2.76418 7.00256 2.7773 6.99819 2.78167 6.98944C2.95662 6.74888 3.11408 6.49519 3.24967 6.22839C3.25842 6.21089 3.24967 6.1934 3.23218 6.18902C2.98287 6.0928 2.74668 5.97908 2.51487 5.84786C2.49737 5.83912 2.49737 5.81287 2.51049 5.79975C2.5586 5.76476 2.60672 5.7254 2.65483 5.69041C2.66358 5.68166 2.6767 5.68166 2.68545 5.68603C4.19005 6.37273 5.81275 6.37273 7.29986 5.68603C7.30861 5.68166 7.32173 5.68166 7.33048 5.69041C7.37859 5.72977 7.4267 5.76476 7.47482 5.80413C7.49231 5.81725 7.49231 5.84349 7.47044 5.85224C7.243 5.98783 7.00244 6.09717 6.75313 6.1934C6.73564 6.19777 6.73126 6.21964 6.73564 6.23276C6.8756 6.49957 7.03306 6.75325 7.20364 6.99381C7.21676 6.99819 7.22988 7.00256 7.243 6.99819C7.99531 6.76637 8.75198 6.41647 9.53928 5.83912C9.54802 5.83474 9.5524 5.82599 9.5524 5.81725C9.74485 3.83589 9.23311 2.11697 8.1965 0.590491C8.19213 0.586117 8.18776 0.581743 8.17901 0.581743ZM3.47711 4.7719C3.02661 4.7719 2.65046 4.35638 2.65046 3.84464C2.65046 3.3329 3.01786 2.91738 3.47711 2.91738C3.94074 2.91738 4.30815 3.33727 4.30377 3.84464C4.30377 4.35638 3.93637 4.7719 3.47711 4.7719ZM6.52569 4.7719C6.07518 4.7719 5.69903 4.35638 5.69903 3.84464C5.69903 3.3329 6.06644 2.91738 6.52569 2.91738C6.98932 2.91738 7.35672 3.33727 7.35235 3.84464C7.35235 4.35638 6.98932 4.7719 6.52569 4.7719Z" fill="white"/>
</svg>
