<svg width="12" height="13" viewBox="0 0 12 13" fill="none" xmlns="http://www.w3.org/2000/svg">
<g id="Icon">
<path d="M6.79478 0.900024C6.35295 0.900024 5.99478 1.2582 5.99478 1.70002C5.99478 2.14185 6.35295 2.50002 6.79478 2.50002H8.86341L3.82909 7.53434C3.51667 7.84676 3.51667 8.35329 3.82909 8.66571C4.14151 8.97813 4.64804 8.97813 4.96046 8.66571L9.99478 3.6314V5.70002C9.99478 6.14185 10.3529 6.50002 10.7948 6.50002C11.2366 6.50002 11.5948 6.14185 11.5948 5.70002V1.70002C11.5948 1.2582 11.2366 0.900024 10.7948 0.900024H6.79478Z" fill="#A4A1C8"/>
<path d="M1.99478 2.50002C1.11112 2.50002 0.394775 3.21637 0.394775 4.10002V10.5C0.394775 11.3837 1.11112 12.1 1.99478 12.1H8.39478C9.27843 12.1 9.99478 11.3837 9.99478 10.5V8.10003C9.99478 7.6582 9.6366 7.30002 9.19478 7.30002C8.75295 7.30002 8.39478 7.6582 8.39478 8.10003V10.5H1.99478V4.10002L4.39478 4.10002C4.8366 4.10002 5.19478 3.74185 5.19478 3.30002C5.19478 2.8582 4.8366 2.50002 4.39478 2.50002H1.99478Z" fill="#A4A1C8"/>
</g>
</svg>
