<svg width="15" height="15" viewBox="0 0 15 15" fill="none" xmlns="http://www.w3.org/2000/svg">
<g id="Icon/Solid/code">
<path id="Icon" fill-rule="evenodd" clip-rule="evenodd" d="M9.12131 2.63597C9.48807 2.75822 9.68628 3.15464 9.56403 3.5214L6.76403 11.9214C6.64178 12.2882 6.24535 12.4864 5.87859 12.3641C5.51183 12.2419 5.31362 11.8454 5.43587 11.4787L8.23587 3.07868C8.35813 2.71192 8.75455 2.51371 9.12131 2.63597ZM4.49493 4.90507C4.76829 5.17844 4.76829 5.62165 4.49493 5.89502L2.8899 7.50004L4.49493 9.10507C4.76829 9.37844 4.76829 9.82165 4.49493 10.095C4.22156 10.3684 3.77834 10.3684 3.50498 10.095L1.40498 7.99502C1.13161 7.72165 1.13161 7.27844 1.40498 7.00507L3.50498 4.90507C3.77834 4.6317 4.22156 4.6317 4.49493 4.90507ZM10.505 4.90507C10.7783 4.6317 11.2216 4.6317 11.4949 4.90507L13.5949 7.00507C13.8683 7.27844 13.8683 7.72165 13.5949 7.99502L11.4949 10.095C11.2216 10.3684 10.7783 10.3684 10.505 10.095C10.2316 9.82165 10.2316 9.37844 10.505 9.10507L12.11 7.50004L10.505 5.89502C10.2316 5.62165 10.2316 5.17844 10.505 4.90507Z" fill="white"/>
</g>
</svg>
