<svg width="14" height="16" viewBox="0 0 14 16" fill="none" xmlns="http://www.w3.org/2000/svg">
<g id="Group 88">
<path id="Vector" d="M7.76923 5.5625H2.23077C1.55103 5.5625 1 6.18241 1 6.94712V13.1779C1 13.9426 1.55103 14.5625 2.23077 14.5625H7.76923C8.44897 14.5625 9 13.9426 9 13.1779V6.94712C9 6.18241 8.44897 5.5625 7.76923 5.5625Z" stroke="#ECECEC" stroke-width="1.33333" stroke-linecap="round" stroke-linejoin="round"/>
<path id="Vector_2" d="M11.1154 9.4375H11.5769C11.8217 9.4375 12.0565 9.30783 12.2296 9.07702C12.4027 8.8462 12.5 8.53315 12.5 8.20673V2.66827C12.5 2.34185 12.4027 2.0288 12.2296 1.79798C12.0565 1.56717 11.8217 1.4375 11.5769 1.4375H7.42308C7.17826 1.4375 6.94347 1.56717 6.77036 1.79798C6.59725 2.0288 6.5 2.34185 6.5 2.66827V3.28365" stroke="#ECECEC" stroke-width="1.33333" stroke-linecap="round" stroke-linejoin="round"/>
</g>
</svg>
