<svg width="17" height="17" viewBox="0 0 17 17" fill="none" xmlns="http://www.w3.org/2000/svg">
<g id="ion:wallet-outline" clip-path="url(#clip0_35_1637)">
<path id="Vector" d="M13.8948 5H3.89478C3.06635 5 2.39478 5.67157 2.39478 6.5V12.5C2.39478 13.3284 3.06635 14 3.89478 14H13.8948C14.7232 14 15.3948 13.3284 15.3948 12.5V6.5C15.3948 5.67157 14.7232 5 13.8948 5Z" stroke="white" stroke-width="2" stroke-linejoin="round"/>
<path id="Vector_2" d="M13.7498 4.99999V4.06249C13.7497 3.83255 13.6989 3.60546 13.6009 3.39743C13.503 3.1894 13.3603 3.00555 13.1832 2.85899C13.006 2.71244 12.7986 2.6068 12.5759 2.5496C12.3532 2.4924 12.1206 2.48507 11.8948 2.52811L3.66478 3.9328C3.30738 4.00091 2.98495 4.1916 2.7531 4.472C2.52126 4.75239 2.39453 5.1049 2.39478 5.46874V6.99999" stroke="white" stroke-width="2" stroke-linejoin="round"/>
<path id="Vector_3" d="M12.3948 10.5C12.197 10.5 12.0037 10.4414 11.8392 10.3315C11.6748 10.2216 11.5466 10.0654 11.4709 9.88268C11.3952 9.69996 11.3754 9.49889 11.414 9.30491C11.4526 9.11093 11.5478 8.93275 11.6877 8.79289C11.8275 8.65304 12.0057 8.5578 12.1997 8.51922C12.3937 8.48063 12.5947 8.50043 12.7775 8.57612C12.9602 8.65181 13.1164 8.77998 13.2262 8.94443C13.3361 9.10888 13.3948 9.30222 13.3948 9.5C13.3948 9.76522 13.2894 10.0196 13.1019 10.2071C12.9143 10.3946 12.66 10.5 12.3948 10.5Z" fill="white"/>
</g>
<defs>
<clipPath id="clip0_35_1637">
<rect width="16" height="16" fill="white" transform="translate(0.894775 0.5)"/>
</clipPath>
</defs>
</svg>
