<svg width="20" height="20" viewBox="0 0 20 20" fill="none" xmlns="http://www.w3.org/2000/svg">
<g id="icons/Brightness Down/Line">
<g id="Shape">
<path d="M10.0001 1.66675C9.53984 1.66675 9.16675 2.03984 9.16675 2.50008C9.16675 2.96032 9.53984 3.33341 10.0001 3.33341C10.4603 3.33341 10.8334 2.96032 10.8334 2.50008C10.8334 2.03984 10.4603 1.66675 10.0001 1.66675Z" fill="#575571"/>
<path d="M10.0001 16.6667C9.53984 16.6667 9.16675 17.0398 9.16675 17.5001C9.16675 17.9603 9.53984 18.3334 10.0001 18.3334C10.4603 18.3334 10.8334 17.9603 10.8334 17.5001C10.8334 17.0398 10.4603 16.6667 10.0001 16.6667Z" fill="#575571"/>
<path d="M17.5001 9.16675C17.9603 9.16675 18.3334 9.53984 18.3334 10.0001C18.3334 10.4603 17.9603 10.8334 17.5001 10.8334C17.0398 10.8334 16.6667 10.4603 16.6667 10.0001C16.6667 9.53984 17.0398 9.16675 17.5001 9.16675Z" fill="#575571"/>
<path d="M3.33341 10.0001C3.33341 9.53984 2.96032 9.16675 2.50008 9.16675C2.03984 9.16675 1.66675 9.53984 1.66675 10.0001C1.66675 10.4603 2.03984 10.8334 2.50008 10.8334C2.96032 10.8334 3.33341 10.4603 3.33341 10.0001Z" fill="#575571"/>
<path d="M14.7142 4.10761C15.0396 3.78217 15.5672 3.78217 15.8927 4.10761C16.2181 4.43304 16.2181 4.96068 15.8927 5.28612C15.5672 5.61156 15.0396 5.61156 14.7142 5.28612C14.3887 4.96068 14.3887 4.43304 14.7142 4.10761Z" fill="#575571"/>
<path d="M5.28599 14.7141C4.96056 14.3887 4.43292 14.3887 4.10748 14.7141C3.78204 15.0395 3.78204 15.5672 4.10748 15.8926C4.43292 16.218 4.96056 16.218 5.28599 15.8926C5.61143 15.5672 5.61143 15.0395 5.28599 14.7141Z" fill="#575571"/>
<path d="M15.8927 14.7142C16.2181 15.0396 16.2181 15.5672 15.8927 15.8927C15.5672 16.2181 15.0396 16.2181 14.7141 15.8927C14.3887 15.5672 14.3887 15.0396 14.7141 14.7142C15.0396 14.3887 15.5672 14.3887 15.8927 14.7142Z" fill="#575571"/>
<path d="M5.28607 5.28599C5.61151 4.96056 5.61151 4.43292 5.28607 4.10748C4.96063 3.78204 4.433 3.78204 4.10756 4.10748C3.78212 4.43292 3.78212 4.96056 4.10756 5.28599C4.433 5.61143 4.96063 5.61143 5.28607 5.28599Z" fill="#575571"/>
</g>
<path id="Shape_2" fill-rule="evenodd" clip-rule="evenodd" d="M10.0001 11.6667C10.9206 11.6667 11.6667 10.9206 11.6667 10.0001C11.6667 9.07961 10.9206 8.33341 10.0001 8.33341C9.07961 8.33341 8.33341 9.07961 8.33341 10.0001C8.33341 10.9206 9.07961 11.6667 10.0001 11.6667ZM10.0001 13.3334C11.841 13.3334 13.3334 11.841 13.3334 10.0001C13.3334 8.15913 11.841 6.66675 10.0001 6.66675C8.15913 6.66675 6.66675 8.15913 6.66675 10.0001C6.66675 11.841 8.15913 13.3334 10.0001 13.3334Z" fill="#575571"/>
</g>
</svg>
