<svg width="16" height="17" viewBox="0 0 16 17" fill="none" xmlns="http://www.w3.org/2000/svg">
<g id="logos:reddit-icon" clip-path="url(#clip0_35_1605)">
<path id="Vector" d="M8 16.5C12.4183 16.5 16 12.9183 16 8.5C16 4.08172 12.4183 0.5 8 0.5C3.58172 0.5 0 4.08172 0 8.5C0 12.9183 3.58172 16.5 8 16.5Z" fill="#FF4500"/>
<path id="Vector_2" d="M13.322 8.5763C13.322 7.9278 12.7975 7.41274 12.1584 7.41274C11.8565 7.41233 11.5661 7.52851 11.3478 7.73705C10.5467 7.16474 9.44978 6.79287 8.22903 6.74518L8.76304 4.24637L10.4988 4.61824C10.518 5.05699 10.8803 5.40993 11.3287 5.40993C11.7865 5.40993 12.1584 5.03805 12.1584 4.58005C12.1584 4.1223 11.7865 3.75037 11.3287 3.75037C11.0045 3.75037 10.7182 3.94112 10.5847 4.21774L8.64872 3.80762C8.59147 3.79799 8.53422 3.80762 8.49604 3.83624C8.44835 3.86487 8.41979 3.91249 8.41035 3.96974L7.81885 6.75462C6.57904 6.79287 5.4631 7.16474 4.65247 7.74662C4.43414 7.53808 4.14371 7.42192 3.84179 7.42237C3.19322 7.42237 2.67822 7.9468 2.67822 8.58593C2.67822 9.06274 2.96429 9.46324 3.36497 9.64462C3.34551 9.76123 3.33594 9.87927 3.33635 9.99749C3.33635 11.7904 5.4251 13.2497 8.00016 13.2497C10.5753 13.2497 12.664 11.8 12.664 9.99749C12.664 9.87929 12.6544 9.76128 12.6354 9.64462C13.0359 9.46324 13.322 9.05312 13.322 8.5763ZM5.3296 9.40599C5.3296 8.94824 5.70147 8.5763 6.15947 8.5763C6.61722 8.5763 6.98916 8.94818 6.98916 9.40599C6.98916 9.8638 6.61729 10.2359 6.15947 10.2359C5.70154 10.2452 5.3296 9.8638 5.3296 9.40599ZM9.97441 11.6092C9.40216 12.1815 8.31485 12.2197 8.00016 12.2197C7.67591 12.2197 6.58866 12.1719 6.02579 11.6092C5.9401 11.5234 5.9401 11.3898 6.02579 11.304C6.11166 11.2183 6.24516 11.2183 6.33104 11.304C6.69354 11.6665 7.45654 11.7904 8.00016 11.7904C8.54385 11.7904 9.31629 11.6664 9.66916 11.304C9.75504 11.2183 9.88854 11.2183 9.97441 11.304C10.0507 11.3898 10.0507 11.5234 9.97441 11.6092ZM9.82172 10.2453C9.36391 10.2453 8.99204 9.87343 8.99204 9.41562C8.99204 8.9578 9.36391 8.58593 9.82172 8.58593C10.2797 8.58593 10.6515 8.9578 10.6515 9.41562C10.6515 9.86374 10.2797 10.2453 9.82172 10.2453Z" fill="white"/>
</g>
<defs>
<clipPath id="clip0_35_1605">
<rect width="16" height="16" fill="white" transform="translate(0 0.5)"/>
</clipPath>
</defs>
</svg>
