<svg width="30" height="31" viewBox="0 0 30 31" fill="none" xmlns="http://www.w3.org/2000/svg">
<g id="simple-icons:convertio" clip-path="url(#clip0_35_2574)">
<path id="Vector" d="M15 0.521729C6.71625 0.521729 0 7.21798 0 15.4755C0 23.733 6.71625 30.4292 15 30.4292C23.285 30.4292 30 23.733 30 15.4755C30 7.21798 23.2837 0.521729 15 0.521729ZM14.3237 6.52173C16.7113 6.35923 19.1688 7.01548 21.1138 8.93923C22.8962 10.7355 24.2512 13.2392 24.2237 15.5855H26.89L21.335 21.7892L15.7788 15.5855H18.67C18.6688 13.4305 18.1362 12.158 16.445 10.4905C14.7887 8.82048 13.1113 7.85298 10.2225 7.61173C11.5107 6.99878 12.9012 6.6284 14.3237 6.52173ZM8.6675 9.16298L14.2237 15.3667H11.3325C11.3325 17.5217 11.865 18.7942 13.555 20.4617C15.2125 22.1317 16.8888 23.1017 19.7775 23.343C16.4225 24.928 12.0025 25.0905 8.89 22.013C7.10625 20.2167 5.75 17.713 5.77875 15.3667H3.11L8.6675 9.16298Z" fill="#A4A1C8"/>
</g>
<defs>
<clipPath id="clip0_35_2574">
<rect width="30" height="30" fill="white" transform="translate(0 0.475464)"/>
</clipPath>
</defs>
</svg>
