<svg width="15" height="15" viewBox="0 0 15 15" fill="none" xmlns="http://www.w3.org/2000/svg">
<g id="Icon/Solid/users">
<g id="Icon">
<path d="M6.79995 4.69998C6.79995 5.85977 5.85975 6.79998 4.69995 6.79998C3.54015 6.79998 2.59995 5.85977 2.59995 4.69998C2.59995 3.54018 3.54015 2.59998 4.69995 2.59998C5.85975 2.59998 6.79995 3.54018 6.79995 4.69998Z" fill="white"/>
<path d="M12.4 4.69998C12.4 5.85977 11.4598 6.79998 10.3 6.79998C9.14015 6.79998 8.19995 5.85977 8.19995 4.69998C8.19995 3.54018 9.14015 2.59998 10.3 2.59998C11.4598 2.59998 12.4 3.54018 12.4 4.69998Z" fill="white"/>
<path d="M9.55034 12.4C9.58305 12.1714 9.59997 11.9376 9.59997 11.7C9.59997 10.5553 9.20749 9.50239 8.54978 8.66832C9.06463 8.37046 9.66239 8.19998 10.3 8.19998C12.233 8.19998 13.8 9.76698 13.8 11.7V12.4H9.55034Z" fill="white"/>
<path d="M4.69995 8.19998C6.63295 8.19998 8.19995 9.76698 8.19995 11.7V12.4H1.19995V11.7C1.19995 9.76698 2.76695 8.19998 4.69995 8.19998Z" fill="white"/>
</g>
</g>
</svg>
